<?xml version="1.0" encoding="utf-8" ?>
<svg xmlns="http://www.w3.org/2000/svg" xmlns:xlink="http://www.w3.org/1999/xlink" width="1024" height="1024">
	<path transform="scale(2 2)" d="M397.51 152.25C402.27 152.267 407.094 152.474 411.847 152.25L411.847 232.75C433.585 233.141 432.851 230.73 432.894 250.951L432.874 305.646C432.913 327.973 435.719 326.682 412.498 327.493L412.498 357.312C412.633 360.623 401.394 359.011 398.378 358.999L398.378 327.493L389.963 327.535C377.71 327.568 379.208 321.062 379.207 311.089L379.214 255.539C379.198 237.026 374.975 231.452 397.51 232.75L397.51 152.25ZM393.248 247.193C392.581 251.079 393.288 259.624 393.276 264.187L393.248 313.226L418.577 313.226L418.577 247.193C412.496 246.875 399.162 246.584 393.248 247.193Z"/>
	<path transform="scale(2 2)" d="M305.001 120.95C309.669 120.807 314.332 120.835 319 120.95L319 168.286C339.706 168.181 339.097 166.945 339.045 187.297L339.036 241.029C339.038 246.193 339.353 251.612 338.881 256.749C338.002 266.303 325.308 262.915 319 263.474L319 343.747C314.496 344.189 309.552 343.76 305.001 343.747L305.001 263.474C294.146 263.416 285.168 266.56 285.022 252.69C284.84 235.418 285.026 218.125 285.011 200.851L285.005 184.767C285.015 166.961 286.596 168.238 305.001 168.286C304.497 161.528 305.005 154.535 304.986 147.746L304.974 131.409C304.956 127.944 304.786 124.407 305.001 120.95ZM301.87 182.88C301.105 182.873 300.11 182.731 299.459 183.182C298.999 188.466 299.416 194.055 299.42 199.374L299.427 232.521C299.427 237.968 299.708 243.572 299.418 249.001L322.325 249.001C326.646 249.051 325.011 246.254 325.006 241.614L324.999 182.88L301.87 182.88Z"/>
	<path transform="scale(2 2)" d="M120.645 120.95L134.848 120.95C135.136 130.504 134.854 140.156 134.852 149.722L134.848 208.01C145.322 208.673 154.511 204.352 154.694 218.317C154.922 235.664 154.747 253.04 154.755 270.39L154.754 287.569C154.74 305.739 153.251 303.833 134.848 303.618L134.848 343.747C130.216 343.774 125.221 343.207 120.645 343.747L120.645 303.618C114.594 303.285 101.408 306.439 100.954 297.144C100.682 291.569 100.944 285.859 100.955 280.269L100.952 226.191C100.949 207.358 99.8036 207.878 120.645 208.01L120.645 120.95ZM114.999 222.477L114.999 289.261L140.755 289.261L140.755 222.477L114.999 222.477Z"/>
	<path transform="scale(2 2)" d="M213.538 120.95C218.437 120.97 223.354 120.78 228.25 120.95L228.25 152.25C243.718 152.519 247.687 148.151 247.716 167.887L247.735 236.129C247.691 250.691 238.364 247.29 227.501 247.193L227.501 343.747L213.538 343.747L213.514 259.97C213.472 255.719 213.207 251.435 213.538 247.193C196.818 247.191 193.225 250.386 193.236 233.197L193.244 162.323C193.307 148.717 203.406 152.191 213.538 152.25L213.546 132.124C213.558 128.41 213.72 124.658 213.538 120.95ZM207.25 166.846L207.25 232.75L233.507 232.75L233.507 166.846C224.759 166.845 215.997 166.738 207.25 166.846Z"/>
	<path transform="scale(2 2)" d="M58.9388 80.6109C68.6856 80.2012 67.0553 90.0665 67.0184 96.7494L67.0027 392.501L438.059 392.489C442.588 392.48 454.397 391.064 457.905 394.291C461.209 397.329 461.365 402.247 458.088 405.42C455.248 408.169 450.559 407.463 446.938 407.373L101.333 407.371C87.8733 407.371 73.9622 407.83 60.5674 407.296C50.9178 406.912 52.7074 395.494 52.7377 388.934L52.7357 95.2902C52.6823 89.4865 51.2578 82.049 58.9388 80.6109Z"/>
</svg>
