<?xml version="1.0" encoding="utf-8" ?>
<svg xmlns="http://www.w3.org/2000/svg" xmlns:xlink="http://www.w3.org/1999/xlink" width="1024" height="1024">
	<path fill="#040404" transform="scale(2 2)" d="M214.957 344.097C225.49 340.278 240.26 364.014 216.762 371.649C198.533 370.898 196.119 345.82 214.957 344.097Z"/>
	<path fill="#040404" transform="scale(2 2)" d="M370.759 260.311C388.398 258.922 391.004 285.587 372.81 287.93C355.25 289.112 351.555 263.151 370.759 260.311Z"/>
	<path fill="#040404" transform="scale(2 2)" d="M370.759 344.097C385.726 341.333 393.434 369.125 372.81 371.649C358.172 375.148 348.82 346.394 370.759 344.097Z"/>
	<path fill="#040404" transform="scale(2 2)" d="M214.957 233.31C231.454 231.839 236.563 257.935 216.762 261.219C199.043 262.144 195.586 235.99 214.957 233.31Z"/>
	<path fill="#040404" transform="scale(2 2)" d="M330.7 163.306C348.194 161.536 352.87 186.975 334.407 190.946C315.546 192.629 311.912 166.51 330.7 163.306Z"/>
	<path fill="#040404" transform="scale(2 2)" d="M258.736 163.306C276.38 161.969 279.701 187.65 261.502 190.946C243.83 193.064 238.658 166.439 258.736 163.306Z"/>
	<path fill="#040404" transform="scale(2 2)" d="M105.956 321.314C121.141 319.882 129.318 342.993 109.308 349.466C89.9872 349.326 86.4111 324.934 105.956 321.314Z"/>
	<path fill="#040404" transform="scale(2 2)" d="M162.066 290.299C180.615 288.505 184.184 314.171 166.945 318.249C148.862 321.253 143.526 294.531 162.066 290.299Z"/>
	<path fill="#040404" transform="scale(2 2)" d="M163.499 383.084C182.049 384.155 183.447 409.239 164.268 411.487C146.471 411.676 144.214 384.802 163.499 383.084Z"/>
	<path fill="#040404" transform="scale(2 2)" d="M289.695 321.314C307.679 319.767 311.925 345.818 293.382 349.466C274.694 351.294 270.41 324.472 289.695 321.314Z"/>
	<path fill="#040404" transform="scale(2 2)" d="M62.7437 68.5579C65.63 68.1919 67.1421 69.1542 68.7796 71.6006L68.7796 409.849C73.3196 407.441 77.4963 403.778 81.6583 400.752L216.762 302.423C218.582 292.493 225.281 286.456 235.617 288.898C244.254 283.945 255.651 274.416 263.795 268.344C262.718 255.966 273.268 249.128 284.458 252.799C287.537 251.023 290.422 248.861 293.332 246.821L309.452 235.428C308.348 223.588 317.909 215.152 329.832 219.488C340.315 213.624 355.206 201.775 365.069 194.526C367.62 192.65 385.27 177.446 384.42 190.257C384.132 194.606 375.513 198.361 372.427 200.566L348.064 218.313C344.542 220.923 340.682 223.264 337.376 226.137L337.097 226.383C344.344 242.024 326.34 255.174 313.444 243.406C306.251 248.724 298.807 253.693 291.584 258.976C300.022 274.627 282.294 288.921 267.857 276.95C259.833 282.816 251.799 288.798 243.623 294.444C252.851 310.981 236.038 327.698 219.643 312.194C200.04 325.181 180.478 341.021 161.078 354.781C133.519 375.358 105.09 394.791 77.4241 415.233C74.5812 417.334 71.792 419.657 68.7796 421.501L68.7796 431.257L439.79 431.258C443.104 431.257 449.958 429.92 452.173 433.235C453.543 435.284 453.105 438.646 450.884 439.941C447.987 441.631 440.145 440.742 436.834 440.741L79.534 440.732C61.5378 440.732 59.43 445.105 59.5193 427.545L59.5246 92.2655C59.5171 85.6208 56.7302 71.578 62.7437 68.5579Z"/>
</svg>
